Coordinates
version=1
nRows=13
nColumns=36
inDegrees=yes

Units are S.I. units (second, meters, Newtons, ...)
If the header above contains a line with 'inDegrees', this indicates whether rotational values are in degrees (yes) or radians (no).

endheader
time	pelvis_tilt	pelvis_list	pelvis_rotation	pelvis_tx	pelvis_ty	pelvis_tz	hip_flexion_r	hip_adduction_r	hip_rotation_r	knee_angle_r	knee_angle_r_beta	ankle_angle_r	subtalar_angle_r	mtp_angle_r	hip_flexion_l	hip_adduction_l	hip_rotation_l	knee_angle_l	knee_angle_l_beta	ankle_angle_l	subtalar_angle_l	mtp_angle_l	lumbar_extension	lumbar_bending	lumbar_rotation	arm_flex_r	arm_add_r	arm_rot_r	elbow_flex_r	pro_sup_r	arm_flex_l	arm_add_l	arm_rot_l	elbow_flex_l	pro_sup_l
      4.83333330	     -9.10617265	     -0.87471103	      1.18345632	      0.43723756	      1.10796255	      0.09190473	      7.73956970	     -4.45763829	    -15.95393880	      4.16880234	      0.07275933	    -23.75633618	     -9.82441081	     -7.49999987	     13.29288972	     -6.08451366	     -0.70057901	     10.61642159	      0.18529151	    -18.86821748	     -3.45294770	     -7.49999987	      5.47004285	     -1.32099567	     -2.02398388	     38.94338356	    -39.38569355	     20.14531550	    126.33821188	     87.56696097	     50.13309069	    -25.94824325	     50.81593137	    110.16671862	     81.00198691
      4.85000000	     -8.48091018	     -1.24788878	      1.26346978	      0.44501558	      1.08322050	      0.09442198	      6.94734575	     -4.17391859	    -15.99259840	      5.67594980	      0.09906401	    -23.67253717	    -12.24942228	     -7.49999987	     13.00920533	     -6.65403351	     -0.02258215	     11.75244770	      0.20511891	    -17.43116001	     -4.44340112	     -7.49999987	      5.20756151	     -1.33729637	      1.06946009	     24.33640009	    -41.69813056	     16.15501082	    128.12959011	     85.43791751	     44.38289282	    -25.17728625	     56.82610238	    109.06796458	     77.91853913
      4.86666670	     -7.49399529	     -1.19448311	      0.79490970	      0.44337037	      1.05906893	      0.09683336	      6.14755892	     -4.25421566	    -15.26905850	      7.21150220	      0.12586446	    -22.47005857	    -13.88917451	     -7.49999987	     12.32366752	     -6.81881692	      0.52002219	     12.91045894	      0.22533002	    -16.66116843	     -5.52649587	     -7.49999987	      4.77690814	     -1.11859854	      1.80520983	     14.87925541	    -38.49581677	     17.49298115	    125.63268935	     82.96377667	     34.02763042	    -26.88438116	     57.52448824	    107.29270821	     76.04303946
      4.88333330	     -7.09580319	     -1.27919185	      0.69895989	      0.44215045	      1.01868353	      0.09458888	      6.15369276	     -4.33268323	    -14.38334976	      8.66211715	      0.15118246	    -22.14808309	    -15.23315482	     -7.49999987	     12.33887635	     -6.95910164	      1.02217447	     13.77923807	      0.24049307	    -15.90701353	     -6.68170496	     -7.49999987	      4.28254200	     -0.80236494	      5.43815276	     -0.03950618	    -37.58569870	     10.66326595	    126.78376237	     86.43797514	     26.96597162	    -26.33816292	     56.26134705	    101.61609913	     78.19818476
      4.90000000	     -6.54375894	     -1.55105048	      0.68213965	      0.44499354	      0.97764392	      0.09398611	      6.08066001	     -4.31180340	    -13.36918538	     10.35467823	      0.18072323	    -21.37289211	    -17.78753389	     -7.49999987	     12.19574753	     -7.24279554	      1.89061417	     14.98032774	      0.26145604	    -15.18209087	     -8.19530918	     -7.49999987	      3.44423781	     -0.54733145	      5.03267412	    -12.55001321	    -33.59102929	      5.95867738	    125.97336871	     85.95642019	     15.24135012	    -27.10185188	     49.29648267	     98.82693895	     77.19852299
      4.91666670	     -5.59588693	     -1.42471351	      0.56688872	      0.44511985	      0.93075959	      0.09201151	      6.15574323	     -4.63803387	    -11.75640206	     13.82869234	      0.24135621	    -13.30319480	    -21.14253929	     -7.49999987	     12.45604824	     -6.98746240	      3.59769312	     18.31897329	      0.31972640	     -9.51951678	    -11.56777210	     -7.49999987	      1.90980133	     -0.26019985	      3.57998431	    -15.98406952	    -31.14398373	      8.44887878	    118.44560110	     91.07692569	      3.32637233	    -27.85527145	     40.61304749	     95.36303566	     80.78092158
      4.93333330	     -5.16879991	     -1.41334819	      0.44107794	      0.44267116	      0.90894599	      0.09382893	      6.77363066	     -4.83491534	    -10.32454138	     17.84824460	      0.31151063	     -4.47177876	    -24.59020309	     -7.49999987	     12.81251581	     -6.96134744	      5.66455924	     21.69067532	      0.37857370	     -0.82521325	    -13.41250601	     -7.49999987	      0.62260797	     -0.07466963	      1.64892553	    -16.71947221	    -28.82753617	     13.16033832	    105.21868018	     91.62664669	     -6.22740251	    -25.96063947	     31.42362827	     86.40293484	     83.92419720
      4.95000000	     -4.07308333	     -1.13308366	      0.61182433	      0.44537838	      0.87637356	      0.09365682	      6.66700121	     -5.26721978	     -7.83113455	     22.42441970	      0.39137996	      5.84511335	    -26.56849619	     -7.49999987	     12.58568120	     -6.55613570	      7.25126657	     25.55997797	      0.44610577	      7.83015136	    -15.17352743	     -7.49999987	     -0.91668249	     -0.62284439	      2.02185730	    -18.93592690	    -23.91019290	     12.64005261	     88.67429513	     88.17881809	     -8.77540517	    -24.52935013	     28.77192732	     73.29565449	     81.17451449
      4.96666670	     -2.49133893	     -0.99749913	      1.13669441	      0.44446911	      0.86690693	      0.09337406	      6.03951361	     -5.25677582	     -6.49419194	     27.19235085	      0.47459605	     13.55857312	    -28.35219245	     -7.49999987	     13.03697659	     -6.00391030	      9.21020573	     30.91537182	      0.53957503	     14.32246715	    -17.84276690	     -7.49999987	     -2.30819747	     -0.95433907	      2.39888759	    -17.51286500	    -19.48709572	     13.69539118	     68.22989987	     87.42458813	     -9.17361805	    -22.18304045	     26.36767507	     56.57048418	     80.16459026
      4.98333330	     -0.67343553	     -0.90075687	      1.51753224	      0.44153904	      0.85705929	      0.10187716	      7.32299819	     -5.19487865	     -5.66311096	     34.73508166	      0.60624154	     20.02467912	    -30.23603106	     -7.49999987	     14.17175904	     -5.65362445	     10.57946440	     37.91752444	      0.66178565	     19.34342629	    -19.61617026	     -7.49999987	     -5.00621374	     -1.18146748	      1.38258680	    -12.23245812	    -15.53341111	     19.14399484	     45.51464989	     88.56848642	     -9.07033050	    -20.64312822	     22.86013328	     44.21666963	     80.13199879
      5.00000000	      2.12030399	     -1.01189047	      1.66603605	      0.45000022	      0.84382857	      0.10163908	      7.20298096	     -4.96167073	     -5.08064861	     41.66940969	      0.72726840	     24.89904288	    -31.06158080	     -7.49999987	     14.76802701	     -5.39351833	     11.49985969	     46.20283796	      0.80639165	     23.55895363	    -21.03384505	     -7.49999987	     -9.12374866	     -0.44562597	      1.10952010	    -10.12541236	    -12.09943147	     19.81294665	     28.62944136	     87.39333240	     -9.33441226	    -20.35596976	     21.71233919	     39.43314979	     79.46892604
      5.01666670	      3.18686284	     -1.28984172	      1.46013548	      0.44542847	      0.83058036	      0.09908660	      9.17997734	     -4.80252201	     -4.60813177	     48.08141160	      0.83917894	     28.21039692	    -31.66453165	     -7.49999987	     16.73305158	     -5.21292382	     11.87612771	     52.81009580	      0.92171005	     27.08091864	    -21.03852059	     -7.49999987	    -11.09776244	      0.59845589	     -0.70732121	     -9.00558060	    -11.07075445	     27.91547768	     19.74752741	     73.52513445	    -13.59304885	    -20.03229059	     15.28836618	     45.81337089	     81.86497089
      5.03333330	      3.02586725	     -1.46522757	      1.36901098	      0.43333235	      0.82449014	      0.10593618	     11.75087427	     -4.37506280	     -4.12366445	     52.01112771	      0.90776543	     30.35171882	    -31.71968954	     -7.49999987	     19.55718020	     -5.38361265	     12.10410129	     57.08161500	      0.99626212	     29.30178634	    -20.13189771	     -7.49999987	    -12.34655898	      0.91528121	     -1.24646961	     -9.23598753	    -10.19573983	     26.10656084	     18.43680411	     72.29498891	    -15.94173428	    -20.98866408	     13.98466715	     54.04669530	     81.97240220
